<svg width="93" height="15" viewBox="0 0 93 15" fill="none" xmlns="http://www.w3.org/2000/svg">
<path d="M3.16425 1.56717V9.43948C3.16425 10.302 3.389 10.9641 3.8385 11.4258C4.288 11.8753 4.91973 12.1 5.73368 12.1C6.55979 12.1 7.19759 11.8753 7.64709 11.4258C8.09659 10.9641 8.32134 10.302 8.32134 9.43948V1.56717H10.8908V9.42125C10.8908 10.5025 10.6539 11.4197 10.1801 12.1729C9.71843 12.914 9.09278 13.4728 8.30312 13.8494C7.52561 14.226 6.65698 14.4143 5.69724 14.4143C4.74965 14.4143 3.88709 14.226 3.10958 13.8494C2.34422 13.4728 1.73679 12.914 1.28729 12.1729C0.837787 11.4197 0.613037 10.5025 0.613037 9.42125V1.56717H3.16425Z" fill="#1A1A1A"/>
<path d="M15.9069 1.56717V14.2868H13.3557V1.56717H15.9069Z" fill="#1A1A1A"/>
<path d="M25.2845 1.56717V9.43948C25.2845 10.302 25.5092 10.9641 25.9587 11.4258C26.4082 11.8753 27.04 12.1 27.8539 12.1C28.68 12.1 29.3178 11.8753 29.7673 11.4258C30.2168 10.9641 30.4416 10.302 30.4416 9.43948V1.56717H33.011V9.42125C33.011 10.5025 32.7741 11.4197 32.3003 12.1729C31.8387 12.914 31.213 13.4728 30.4233 13.8494C29.6458 14.226 28.7772 14.4143 27.8175 14.4143C26.8699 14.4143 26.0073 14.226 25.2298 13.8494C24.4644 13.4728 23.857 12.914 23.4075 12.1729C22.958 11.4197 22.7333 10.5025 22.7333 9.42125V1.56717H25.2845Z" fill="#1A1A1A"/>
<path d="M41.0704 4.04549C42.2731 4.04549 43.245 4.42817 43.9861 5.19354C44.7271 5.94675 45.0977 7.00368 45.0977 8.36432V14.2868H42.5464V8.71056C42.5464 7.90875 42.346 7.29525 41.9451 6.87004C41.5442 6.43269 40.9975 6.21402 40.305 6.21402C39.6004 6.21402 39.0416 6.43269 38.6285 6.87004C38.2276 7.29525 38.0272 7.90875 38.0272 8.71056V14.2868H35.4759V4.19127H38.0272V5.44866C38.3673 5.01131 38.7986 4.67114 39.321 4.42817C39.8555 4.17305 40.4387 4.04549 41.0704 4.04549Z" fill="#1A1A1A"/>
<path d="M48.8176 2.98856C48.3681 2.98856 47.9915 2.84885 47.6877 2.56943C47.3962 2.27787 47.2504 1.91948 47.2504 1.49428C47.2504 1.06908 47.3962 0.716768 47.6877 0.43735C47.9915 0.145783 48.3681 0 48.8176 0C49.2671 0 49.6376 0.145783 49.9292 0.43735C50.2329 0.716768 50.3847 1.06908 50.3847 1.49428C50.3847 1.91948 50.2329 2.27787 49.9292 2.56943C49.6376 2.84885 49.2671 2.98856 48.8176 2.98856ZM50.0749 4.19127V14.2868H47.5237V4.19127H50.0749Z" fill="#1A1A1A"/>
<path d="M51.9395 9.23903C51.9395 8.19424 52.1521 7.2831 52.5773 6.50559C53.0025 5.71593 53.5917 5.10849 54.3449 4.68329C55.0982 4.24594 55.9607 4.02727 56.9326 4.02727C58.1839 4.02727 59.2165 4.34313 60.0305 4.97486C60.8566 5.59444 61.4094 6.46914 61.6888 7.59896H58.9371C58.7913 7.16161 58.5423 6.82145 58.19 6.57848C57.8498 6.32336 57.4246 6.1958 56.9144 6.1958C56.1855 6.1958 55.6084 6.46307 55.1832 6.99761C54.758 7.52 54.5454 8.26714 54.5454 9.23903C54.5454 10.1988 54.758 10.9459 55.1832 11.4804C55.6084 12.0028 56.1855 12.264 56.9144 12.264C57.947 12.264 58.6213 11.8024 58.9371 10.8791H61.6888C61.4094 11.9725 60.8566 12.8411 60.0305 13.485C59.2044 14.1288 58.1718 14.4508 56.9326 14.4508C55.9607 14.4508 55.0982 14.2382 54.3449 13.813C53.5917 13.3756 53.0025 12.7682 52.5773 11.9907C52.1521 11.201 51.9395 10.2838 51.9395 9.23903Z" fill="#1A1A1A"/>
<path d="M68.0406 14.4508C67.0687 14.4508 66.194 14.2382 65.4165 13.813C64.639 13.3756 64.0255 12.7621 63.576 11.9725C63.1387 11.1828 62.92 10.2717 62.92 9.23903C62.92 8.20639 63.1447 7.29525 63.5942 6.50559C64.0559 5.71593 64.6815 5.10849 65.4712 4.68329C66.2608 4.24594 67.1416 4.02727 68.1135 4.02727C69.0854 4.02727 69.9662 4.24594 70.7558 4.68329C71.5455 5.10849 72.1651 5.71593 72.6146 6.50559C73.0762 7.29525 73.3071 8.20639 73.3071 9.23903C73.3071 10.2717 73.0702 11.1828 72.5964 11.9725C72.1347 12.7621 71.503 13.3756 70.7012 13.813C69.9115 14.2382 69.0247 14.4508 68.0406 14.4508ZM68.0406 12.2276C68.5023 12.2276 68.9335 12.1182 69.3345 11.8996C69.7475 11.6687 70.0755 11.3286 70.3185 10.8791C70.5615 10.4296 70.683 9.8829 70.683 9.23903C70.683 8.27928 70.4278 7.54429 69.9176 7.03405C69.4195 6.51166 68.806 6.25046 68.0771 6.25046C67.3482 6.25046 66.7346 6.51166 66.2366 7.03405C65.7506 7.54429 65.5076 8.27928 65.5076 9.23903C65.5076 10.1988 65.7445 10.9398 66.2183 11.4622C66.7043 11.9725 67.3117 12.2276 68.0406 12.2276Z" fill="#1A1A1A"/>
<path d="M77.7297 5.75845C78.0577 5.22391 78.4829 4.80478 79.0053 4.50106C79.5398 4.19735 80.1473 4.04549 80.8276 4.04549V6.72426H80.1533C79.3515 6.72426 78.7441 6.91256 78.331 7.28917C77.9301 7.66578 77.7297 8.32181 77.7297 9.25725V14.2868H75.1785V4.19127H77.7297V5.75845Z" fill="#1A1A1A"/>
<path d="M88.1404 4.04549C89.3431 4.04549 90.315 4.42817 91.0561 5.19354C91.7971 5.94675 92.1677 7.00368 92.1677 8.36432V14.2868H89.6164V8.71056C89.6164 7.90875 89.416 7.29525 89.0151 6.87004C88.6142 6.43269 88.0675 6.21402 87.375 6.21402C86.6704 6.21402 86.1116 6.43269 85.6985 6.87004C85.2976 7.29525 85.0972 7.90875 85.0972 8.71056V14.2868H82.5459V4.19127H85.0972V5.44866C85.4373 5.01131 85.8686 4.67114 86.391 4.42817C86.9255 4.17305 87.5087 4.04549 88.1404 4.04549Z" fill="#1A1A1A"/>
</svg>
